<svg width="450" height="400" version="1.1" viewBox="85 145 450 400" xmlns="http://www.w3.org/2000/svg">
 <g>
  <path d="m508.74 226.99c-49.323-33.818-72.659-63.395-72.659-63.395-91.086 53.671-187.82 244.24-187.82 244.24-45.333-63.818-90.914-81.618-90.914-81.618-20.491 27.382-55.813 63.874-55.813 63.874 82.383 22.187 151.53 103.61 151.53 103.61 149.48-234.69 255.67-266.71 255.67-266.71z" fill="#5fd35f" fill-rule="evenodd"/>
  <path transform="translate(8.5714 -11.429)" d="m302.03 528.36a64.286 7.1429 0 1 1-0.05156-0.03483" fill="#999" opacity=".2"/>
  <path d="m518.74 227.28c-49.323-33.818-72.659-63.395-72.659-63.395-91.086 53.671-187.82 244.24-187.82 244.24-45.333-63.818-90.914-81.618-90.914-81.618-20.491 27.382-55.813 63.874-55.813 63.874 82.383 22.187 151.53 103.61 151.53 103.61 149.48-234.69 255.67-266.71 255.67-266.71z" fill="#5fd35f" fill-rule="evenodd" opacity=".27778"/>
 </g>
</svg>
