<svg width="1765" height="3824" version="1.1" xmlns="http://www.w3.org/2000/svg">
 <path d="m881 0.61646c-8.31 1.8667-13.558 13.841-17.681 20.384-11.9 18.882-24.27 37.426-36.652 56-50.428 75.642-99.238 152.36-149.67 228-166.26 249.4-331.38 500.01-493.69 752-43.162 67.01-87.094 133.68-131.31 200-12.412 18.62-24.588 37.38-37 56-4.7649 7.15-14.011 16.23-14.891 25-1.5196 15.14 15.873 12 25.891 12h483c10.326 0 22.541-2.77 25.485 10 4.625 20.07 1.515 43.49 1.515 64v2385c0 3.82-0.936 9.42 1.742 12.57 2.648 3.11 7.617 2.43 11.258 2.43h627c14.75 0 35.82 3.9 49.89-0.43 6.21-1.92 4.11-12.6 4.11-17.57v-2414c0-11.1-1.73-24.65 3.19-34.98 4.57-9.6 17.03-7.02 25.81-7.02h479c6.69 0 27.52 3.14 26.62-8-0.98-12.13-9.91-23.25-16.28-33-12.19-18.68-24.29-37.43-36.67-56-45.8-68.69-90.21-138.31-136-207-164.36-246.54-323.86-496.33-488-743-51.48-77.353-101.47-155.69-153-233-12.189-18.283-24.052-36.776-36.337-55-3.588-5.3235-9.507-16.141-17.33-14.384z" fill="#019741"/>
</svg>
