<?xml version="1.0" encoding="UTF-8" standalone="no"?>
<svg
   viewBox="0 0 669.25171 692.56402"
   height="692.56403"
   width="669.25171"
   xml:space="preserve"
   id="svg2"
   version="1.1"
   sodipodi:docname="two-crossed-katana-swords-vectorportal.svg"
   inkscape:version="1.2 (dc2aedaf03, 2022-05-15)"
   xmlns:inkscape="http://www.inkscape.org/namespaces/inkscape"
   xmlns:sodipodi="http://sodipodi.sourceforge.net/DTD/sodipodi-0.dtd"
   xmlns="http://www.w3.org/2000/svg"
   xmlns:svg="http://www.w3.org/2000/svg"
   xmlns:rdf="http://www.w3.org/1999/02/22-rdf-syntax-ns#"
   xmlns:cc="http://creativecommons.org/ns#"
   xmlns:dc="http://purl.org/dc/elements/1.1/"><sodipodi:namedview
     id="namedview113"
     pagecolor="#ffffff"
     bordercolor="#000000"
     borderopacity="0.25"
     inkscape:showpageshadow="2"
     inkscape:pageopacity="0.0"
     inkscape:pagecheckerboard="0"
     inkscape:deskcolor="#d1d1d1"
     showgrid="false"
     inkscape:zoom="0.62741886"
     inkscape:cx="59.768685"
     inkscape:cy="568.99788"
     inkscape:window-width="1920"
     inkscape:window-height="1017"
     inkscape:window-x="-8"
     inkscape:window-y="-8"
     inkscape:window-maximized="1"
     inkscape:current-layer="svg2" /><metadata
     id="metadata8"><rdf:RDF><cc:Work
         rdf:about=""><dc:format>image/svg+xml</dc:format><dc:type
           rdf:resource="http://purl.org/dc/dcmitype/StillImage" /></cc:Work></rdf:RDF></metadata><defs
     id="defs6" /><g
     transform="matrix(0.13333333,0,0,-0.13333333,-116.96826,773.49998)"
     id="g12"><path
       id="path170"
       style="fill:#bcb8c2;fill-opacity:1;fill-rule:evenodd;stroke:none"
       d="m 877.262,868.59 544.798,360.96 c 1772.48,1203.88 3277.85,2760.16 4422.15,4571.7 l 52.44,-336.68 -68.96,-106.34 C 4709.46,3634.85 2968.37,1828.19 1019.3,607.02 L 877.262,868.59" /><path
       id="path172"
       style="fill:#a29fab;fill-opacity:1;fill-rule:evenodd;stroke:none"
       d="m 3136.85,2578.85 c 105.06,95.31 208.81,191.99 311.22,290.09 61.77,-58.52 124.05,-116.52 186.8,-174.03 -101.67,-100.12 -204.82,-199.25 -309.48,-297.21 -63.3,59.9 -126.15,120.28 -188.54,181.15" /><path
       id="path174"
       style="fill:#d8d2de;fill-opacity:1;fill-rule:evenodd;stroke:none"
       d="m 5768.52,5682.75 c 25.38,39.4 50.66,78.86 75.69,118.5 l 52.44,-336.68 -68.96,-106.33 C 4709.46,3634.85 2968.39,1828.19 1019.3,607.02 l -49.167,90.531 C 2897.57,1910.17 4618.1,3684.69 5729.43,5379.69 l 69.46,105.9 -30.37,197.16" /><path
       id="path176"
       style="fill:#bcb8c2;fill-opacity:1;fill-rule:evenodd;stroke:none"
       d="m 3634.87,2694.91 c -101.67,-100.12 -204.82,-199.25 -309.48,-297.21 -24.7,23.36 -49.32,46.8 -73.87,70.32 104.48,97.43 207.46,195.98 308.94,295.53 24.75,-22.96 49.53,-45.85 74.41,-68.64" /><path
       id="path178"
       style="fill:#9c9aa2;fill-opacity:1;fill-rule:evenodd;stroke:none"
       d="m 2035.2,1668.12 c 171.37,128.95 340.01,261.26 505.69,396.94 L 2717.2,1855.61 C 2547.49,1711.71 2374.76,1571.3 2199.41,1434.9 l -164.21,233.22" /><path
       id="path180"
       style="fill:#46454b;fill-opacity:1;fill-rule:evenodd;stroke:none"
       d="m 877.262,868.59 544.788,360.96 c 279.35,189.72 552.04,388.26 817.76,595.1 l 178.83,-226.69 C 1971.63,1234.22 1499.77,908.051 1019.3,607.02 L 877.262,868.59" /><path
       id="path182"
       style="fill:#fab40a;fill-opacity:1;fill-rule:evenodd;stroke:none"
       d="m 2030.38,1982.78 106.08,83.86 486.27,-615.32 -106.08,-83.83 -486.27,615.29" /><path
       id="path184"
       style="fill:#1f1d1e;fill-opacity:1;fill-rule:evenodd;stroke:none"
       d="m 1003.9,909.781 52.98,-34.09 52.99,-34.101 7.36,-62.578 7.35,-62.59 -53,34.09 -52.98,34.109 -7.36,62.57 -7.34,62.59" /><path
       id="path186"
       style="fill:#1f1d1e;fill-opacity:1;fill-rule:evenodd;stroke:none"
       d="m 1169.51,1016.25 c 17.85,-11.05 35.7,-22.078 53.54,-33.129 17.85,-11.031 35.7,-22.062 53.54,-33.09 2.82,-20.812 5.64,-41.613 8.45,-62.402 2.84,-20.777 5.65,-41.57 8.48,-62.367 -17.85,11.039 -35.7,22.078 -53.54,33.117 -17.85,11.043 -35.69,22.062 -53.54,33.09 -2.82,20.801 -5.64,41.601 -8.47,62.402 -2.8,20.797 -5.63,41.578 -8.46,62.379" /><path
       id="path188"
       style="fill:#1f1d1e;fill-opacity:1;fill-rule:evenodd;stroke:none"
       d="m 1338.19,1130.33 c 18.03,-10.69 36.05,-21.4 54.08,-32.13 18.02,-10.68 36.06,-21.39 54.09,-32.1 3.19,-20.72 6.38,-41.46 9.57,-62.21 3.19,-20.699 6.38,-41.421 9.56,-62.16 -18.02,10.719 -36.04,21.418 -54.08,32.129 -18.02,10.711 -36.04,21.422 -54.09,32.121 -3.19,20.73 -6.37,41.46 -9.57,62.19 -3.19,20.72 -6.38,41.46 -9.56,62.16" /><path
       id="path190"
       style="fill:#1f1d1e;fill-opacity:1;fill-rule:evenodd;stroke:none"
       d="m 1496.61,1239.78 c 18.21,-10.35 36.43,-20.75 54.63,-31.13 18.22,-10.37 36.43,-20.75 54.64,-31.12 3.56,-20.66 7.13,-41.31 10.69,-62 3.56,-20.65 7.12,-41.31 10.68,-61.96 -18.21,10.37 -36.42,20.74 -54.63,31.14 -18.21,10.38 -36.42,20.75 -54.64,31.14 -3.57,20.65 -7.13,41.3 -10.69,61.96 -3.54,20.65 -7.12,41.32 -10.68,61.97" /><path
       id="path192"
       style="fill:#1f1d1e;fill-opacity:1;fill-rule:evenodd;stroke:none"
       d="m 1660.89,1353.6 c 18.41,-10.07 36.81,-20.14 55.19,-30.16 18.4,-10.06 36.81,-20.1 55.19,-30.14 3.94,-20.62 7.88,-41.19 11.79,-61.78 3.96,-20.62 7.88,-41.2 11.8,-61.78 -18.38,10.06 -36.77,20.08 -55.18,30.15 -18.39,10.07 -36.8,20.09 -55.19,30.16 -3.92,20.58 -7.85,41.17 -11.79,61.77 -3.94,20.59 -7.87,41.17 -11.81,61.78" /><path
       id="path194"
       style="fill:#1f1d1e;fill-opacity:1;fill-rule:evenodd;stroke:none"
       d="m 1816.03,1470.85 c 18.57,-9.74 37.14,-19.48 55.72,-29.18 18.59,-9.72 37.17,-19.46 55.75,-29.16 4.31,-20.54 8.6,-41.06 12.89,-61.57 4.32,-20.53 8.62,-41.07 12.92,-61.59 -18.57,9.74 -37.15,19.45 -55.73,29.18 -18.59,9.72 -37.16,19.44 -55.74,29.16 -4.3,20.54 -8.61,41.05 -12.92,61.56 -4.29,20.54 -8.59,41.05 -12.89,61.6" /><path
       id="path196"
       style="fill:#1f1d1e;fill-opacity:1;fill-rule:evenodd;stroke:none"
       d="m 1975.72,1583.64 c 18.78,-9.38 37.54,-18.78 56.29,-28.18 18.77,-9.4 37.53,-18.78 56.29,-28.16 4.68,-20.47 9.36,-40.93 14.03,-61.4 4.66,-20.44 9.34,-40.88 14.02,-61.34 -18.77,9.39 -37.53,18.8 -56.3,28.17 -18.75,9.4 -37.52,18.78 -56.29,28.18 -4.66,20.45 -9.33,40.91 -14.01,61.36 -4.68,20.46 -9.35,40.93 -14.03,61.37" /><path
       id="path198"
       style="fill:#1f1d1e;fill-opacity:1;fill-rule:evenodd;stroke:none"
       d="m 2130.71,1708.62 56.84,-27.18 56.84,-27.22 15.14,-61.15 15.12,-61.16 -56.84,27.21 -56.84,27.18 -15.12,61.16 -15.14,61.16" /><path
       id="path200"
       style="fill:#bcb8c2;fill-opacity:1;fill-rule:evenodd;stroke:none"
       d="m 5896.65,868.59 -544.77,360.96 C 3579.38,2433.43 2074.01,3989.71 929.707,5801.25 l -52.445,-336.68 68.984,-106.34 C 2064.46,3634.85 3805.54,1828.19 5754.63,607.02 l 142.02,261.57" /><path
       id="path202"
       style="fill:#d8d2de;fill-opacity:1;fill-rule:evenodd;stroke:none"
       d="m 1005.4,5682.75 c -25.373,39.4 -50.654,78.86 -75.677,118.5 l -52.461,-336.68 68.984,-106.33 C 2064.46,3634.85 3805.54,1828.19 5754.63,607.02 l 49.17,90.531 C 3876.34,1910.17 2155.83,3684.69 1044.48,5379.69 l -69.437,105.9 30.357,197.16" /><path
       id="path204"
       style="fill:#9c9aa2;fill-opacity:1;fill-rule:evenodd;stroke:none"
       d="m 4738.73,1668.12 c -171.37,128.95 -340.01,261.26 -505.71,396.94 l -176.29,-209.45 c 169.71,-143.9 342.41,-284.31 517.77,-420.71 l 164.23,233.22" /><path
       id="path206"
       style="fill:#46454b;fill-opacity:1;fill-rule:evenodd;stroke:none"
       d="m 5896.65,868.59 -544.77,360.96 c -279.35,189.72 -552.06,388.26 -817.76,595.1 l -178.83,-226.69 c 447,-363.74 918.86,-689.909 1399.34,-990.94 l 142.02,261.57" /><path
       id="path208"
       style="fill:#fab40a;fill-opacity:1;fill-rule:evenodd;stroke:none"
       d="m 4743.55,1982.78 -106.08,83.86 -486.27,-615.32 106.09,-83.83 486.26,615.29" /><path
       id="path210"
       style="fill:#1f1d1e;fill-opacity:1;fill-rule:evenodd;stroke:none"
       d="m 5770.01,909.781 -52.97,-34.09 -52.99,-34.101 -7.36,-62.578 -7.33,-62.59 52.98,34.09 52.97,34.109 7.37,62.57 7.33,62.59" /><path
       id="path212"
       style="fill:#1f1d1e;fill-opacity:1;fill-rule:evenodd;stroke:none"
       d="m 5604.4,1016.25 c -17.85,-11.05 -35.68,-22.078 -53.53,-33.129 -17.85,-11.031 -35.71,-22.062 -53.54,-33.09 -2.83,-20.812 -5.63,-41.613 -8.45,-62.402 -2.83,-20.777 -5.66,-41.57 -8.48,-62.367 17.85,11.039 35.71,22.078 53.54,33.117 17.86,11.043 35.69,22.062 53.56,33.09 2.8,20.801 5.63,41.601 8.46,62.402 2.8,20.797 5.62,41.578 8.44,62.379" /><path
       id="path214"
       style="fill:#1f1d1e;fill-opacity:1;fill-rule:evenodd;stroke:none"
       d="m 5435.74,1130.33 c -18.04,-10.69 -36.06,-21.4 -54.08,-32.13 -18.03,-10.68 -36.06,-21.39 -54.09,-32.1 -3.2,-20.72 -6.39,-41.46 -9.57,-62.21 -3.21,-20.699 -6.39,-41.421 -9.56,-62.16 18.02,10.719 36.03,21.418 54.08,32.129 18.02,10.711 36.04,21.422 54.08,32.121 3.19,20.73 6.37,41.46 9.57,62.19 3.19,20.72 6.39,41.46 9.57,62.16" /><path
       id="path216"
       style="fill:#1f1d1e;fill-opacity:1;fill-rule:evenodd;stroke:none"
       d="m 5277.3,1239.78 c -18.2,-10.35 -36.41,-20.75 -54.62,-31.13 -18.22,-10.37 -36.42,-20.75 -54.63,-31.12 -3.59,-20.66 -7.13,-41.31 -10.69,-62 -3.56,-20.65 -7.13,-41.31 -10.68,-61.96 18.2,10.37 36.42,20.74 54.63,31.14 18.21,10.38 36.41,20.75 54.63,31.14 3.56,20.65 7.13,41.3 10.68,61.96 3.57,20.65 7.13,41.32 10.68,61.97" /><path
       id="path218"
       style="fill:#1f1d1e;fill-opacity:1;fill-rule:evenodd;stroke:none"
       d="m 5113.04,1353.6 c -18.41,-10.07 -36.81,-20.14 -55.21,-30.16 -18.4,-10.06 -36.79,-20.1 -55.17,-30.14 -3.95,-20.62 -7.88,-41.19 -11.81,-61.78 -3.94,-20.62 -7.88,-41.2 -11.8,-61.78 18.38,10.06 36.78,20.08 55.18,30.15 18.41,10.07 36.81,20.09 55.2,30.16 3.92,20.58 7.86,41.17 11.8,61.77 3.92,20.59 7.86,41.17 11.81,61.78" /><path
       id="path220"
       style="fill:#1f1d1e;fill-opacity:1;fill-rule:evenodd;stroke:none"
       d="m 4957.9,1470.85 c -18.59,-9.74 -37.16,-19.48 -55.72,-29.18 -18.6,-9.72 -37.19,-19.46 -55.75,-29.16 -4.3,-20.54 -8.62,-41.06 -12.89,-61.57 -4.32,-20.53 -8.62,-41.07 -12.91,-61.59 18.56,9.74 37.12,19.45 55.72,29.18 18.58,9.72 37.16,19.44 55.74,29.16 4.3,20.54 8.59,41.05 12.92,61.56 4.3,20.54 8.59,41.05 12.89,61.6" /><path
       id="path222"
       style="fill:#1f1d1e;fill-opacity:1;fill-rule:evenodd;stroke:none"
       d="m 4798.2,1583.64 c -18.78,-9.38 -37.53,-18.78 -56.29,-28.18 -18.78,-9.4 -37.53,-18.78 -56.28,-28.16 -4.68,-20.47 -9.36,-40.93 -14.04,-61.4 -4.66,-20.44 -9.33,-40.88 -14.01,-61.34 18.76,9.39 37.52,18.8 56.3,28.17 18.75,9.4 37.51,18.78 56.29,28.18 4.65,20.45 9.33,40.91 14.01,61.36 4.68,20.46 9.35,40.93 14.02,61.37" /><path
       id="path224"
       style="fill:#1f1d1e;fill-opacity:1;fill-rule:evenodd;stroke:none"
       d="m 4643.21,1708.62 -56.83,-27.18 -56.84,-27.22 -15.16,-61.15 -15.11,-61.16 56.83,27.21 56.85,27.18 15.12,61.16 15.14,61.16" /></g></svg>
